<svg width="24" height="24" viewBox="0 0 24 24" fill="none" xmlns="http://www.w3.org/2000/svg">
<g id="Property 1=Carrinho">
<path id="union-1" fill-rule="evenodd" clip-rule="evenodd" d="M1 3C1 2.44772 1.44772 2 2 2H2.76393C3.90025 2 4.93904 2.64201 5.44721 3.65836L5.61803 4H18.5068C20.426 4 21.8517 5.77725 21.4353 7.65079L20.3242 12.6508C20.0192 14.0234 18.8018 15 17.3957 15H8.60434C7.19825 15 5.98081 14.0234 5.67578 12.6508L4.05052 5.3371L3.65836 4.55279C3.48897 4.214 3.1427 4 2.76393 4H2C1.44772 4 1 3.55228 1 3ZM6.24662 6L7.62816 12.2169C7.72983 12.6745 8.13564 13 8.60434 13H17.3957C17.8644 13 18.2702 12.6745 18.3718 12.2169L19.483 7.21693C19.6217 6.59242 19.1465 6 18.5068 6H6.24662ZM9 18C8.44772 18 8 18.4477 8 19C8 19.5523 8.44772 20 9 20C9.55228 20 10 19.5523 10 19C10 18.4477 9.55228 18 9 18ZM6 19C6 17.3431 7.34315 16 9 16C10.6569 16 12 17.3431 12 19C12 20.6569 10.6569 22 9 22C7.34315 22 6 20.6569 6 19ZM17 18C16.4477 18 16 18.4477 16 19C16 19.5523 16.4477 20 17 20C17.5523 20 18 19.5523 18 19C18 18.4477 17.5523 18 17 18ZM14 19C14 17.3431 15.3431 16 17 16C18.6569 16 20 17.3431 20 19C20 20.6569 18.6569 22 17 22C15.3431 22 14 20.6569 14 19Z" fill="black"/>
</g>
</svg>
