<svg width="24" height="24" viewBox="0 0 24 24" fill="none" xmlns="http://www.w3.org/2000/svg">
<g id="Property 1=Pesquisa">
<path id="union-1" fill-rule="evenodd" clip-rule="evenodd" d="M6.64286 9.92857C6.64286 5.82588 9.96874 2.5 14.0714 2.5C18.1741 2.5 21.5 5.82588 21.5 9.92857C21.5 14.0313 18.1741 17.3571 14.0714 17.3571C12.3811 17.3571 10.8215 16.7917 9.57333 15.8409L4.20711 21.2071C3.81658 21.5976 3.18342 21.5976 2.79289 21.2071C2.40237 20.8166 2.40237 20.1834 2.79289 19.7929L8.15912 14.4267C7.20834 13.1785 6.64286 11.6189 6.64286 9.92857ZM14.0714 4.5C11.0733 4.5 8.64286 6.93045 8.64286 9.92857C8.64286 11.4279 9.24938 12.7837 10.2328 13.7672C11.2163 14.7506 12.5721 15.3571 14.0714 15.3571C17.0695 15.3571 19.5 12.9267 19.5 9.92857C19.5 6.93045 17.0695 4.5 14.0714 4.5Z" fill="black"/>
</g>
</svg>
