<svg width="24" height="24" viewBox="0 0 24 24" fill="none" xmlns="http://www.w3.org/2000/svg">
<g id="Property 1=user">
<path id="union-1" fill-rule="evenodd" clip-rule="evenodd" d="M12 4C9.79089 4 8.00003 5.79086 8.00003 8C8.00003 10.2091 9.79089 12 12 12C14.2092 12 16 10.2091 16 8C16 5.79086 14.2092 4 12 4ZM15.641 12.7694C17.075 11.673 18 9.94452 18 8C18 4.68629 15.3137 2 12 2C8.68632 2 6.00003 4.68629 6.00003 8C6.00003 9.94452 6.92504 11.673 8.35904 12.7694C7.35357 13.2142 6.42854 13.8436 5.63607 14.636C5.02414 15.248 4.50938 15.939 4.1018 16.6851C3.34969 18.0619 3.65641 19.4657 4.50343 20.4584C5.31883 21.414 6.62505 22 8.00003 22H16C17.375 22 18.6812 21.414 19.4966 20.4584C20.3437 19.4657 20.6504 18.0619 19.8983 16.6851C19.4907 15.939 18.9759 15.248 18.364 14.636C17.5715 13.8436 16.6465 13.2142 15.641 12.7694ZM12 14C10.1435 14 8.36304 14.7375 7.05028 16.0503C6.57428 16.5263 6.17397 17.0637 5.85699 17.6439C5.55002 18.2058 5.64905 18.7198 6.02484 19.1602C6.43224 19.6376 7.16587 20 8.00003 20H16C16.8342 20 17.5678 19.6376 17.9752 19.1602C18.351 18.7198 18.45 18.2058 18.1431 17.6439C17.8261 17.0637 17.4258 16.5263 16.9498 16.0503C15.637 14.7375 13.8565 14 12 14Z" fill="black"/>
</g>
</svg>
